<svg version="1.0" xmlns="http://www.w3.org/2000/svg" width="2821.333" height="177.333" viewBox="0 0 2116 133"><path class="st0" d="M6 .4c0 .8 22.8 14.1 35.5 20.7 35.6 18.6 68.6 26.7 96.8 23.9 15.1-1.5 29.4-4.8 54.3-12.6 40-12.5 57.6-16.1 84.4-17.1 45.6-1.6 98.7 10.6 160.6 37.1 7.1 3.1 14.2 5.6 15.8 5.6 1.5 0 17.3-1.6 35-3.5 85-9.2 166.6-15.4 259.1-19.7 36.9-1.7 181.6-1.7 215 0 89.4 4.7 163.2 12.9 226.5 25.4 13.3 2.6 24.2 4.3 28.5 4.2 3.9 0 19.4-1.4 34.5-3.2 60.9-7 102.4-9.6 157-9.6 94.2 0 162.8 9.8 244 34.9 44.3 13.6 79.7 21.3 119.4 25.9l13 1.5 30.5-20.3c85.2-56.8 141.9-83.5 181.6-85.3 28.4-1.3 43 7.9 57 35.7 7.9 15.7 12 19.4 19.5 17.1 6.8-2 15.6-8.9 28.9-22.7l13.1-13.6V0H1061C480.8 0 6 .2 6 .4z" fill="#e56768"/></svg>