<svg version="1.0" xmlns="http://www.w3.org/2000/svg" width="2954.667" height="186.667" viewBox="0 0 2216 140"><path class="st0" d="M324.7 34.8c-76.4 51.8-134.1 82-177.2 92.8-12.2 3.1-33.8 4.3-42.8 2.5-8.1-1.7-18.5-7.2-24.2-12.8-5.7-5.7-10.1-12.2-17.4-26.1C57 79.6 52.6 75 47.7 75c-7.9 0-21.2 9.9-37.9 28.3L0 114v26h1105.2c729.3 0 1104.9-.3 1104.2-1-2.6-2.6-29.5-18-42.9-24.5-46.4-22.7-82.1-27.7-122.7-17.5-4.6 1.2-19.1 5.5-32.3 9.5-40.2 12.4-58.5 16.1-85.5 17.2-33.9 1.3-73.5-5.3-117.9-19.9-14.8-4.8-48.5-17.8-59.7-23l-5.2-2.4-16.3 1.8c-125.9 13.6-219.6 20.5-324.9 23.9-40.1 1.3-166.2.6-196-1-71.9-4-119.7-8.4-173.5-16.2-26.8-3.8-69.6-11.2-83.1-14.4-5-1.1-8-1.3-13.2-.5-3.7.5-18.8 2.3-33.7 3.9C793 88.1 702 89.1 622 79c-51.2-6.5-89.6-15.2-150.5-34-35.4-10.9-84.3-20.7-121.8-24.3-3.5-.3-5.6.9-25 14.1z" fill="#e56768"/></svg>